<?xml version="1.0" encoding="UTF-8"?><svg xmlns="http://www.w3.org/2000/svg" viewBox="0 0 352.02 111.11"><defs><style>.d{fill:#dc1429;}</style></defs><g id="a"/><g id="b"><g id="c"><g><path class="d" d="M15,80.83C10.03,80.89,0,85.88,0,95.97c0,10.09,10.03,15.19,15,15.14,13.15-.14,20.03,0,40,0,10,0,15-10.09,15-20.19,0-9.84,0-20.19-15-20.19-14.97,0-21.16-.07-35,0C10.03,70.79,0,60.56,0,50.56c0-10.18,10.03-20.13,20-20.19,25.6-.14,40.03-.27,65,0,5.03,.05,15-5.05,15-15.14,0-10.09-9.97-15.09-15-15.14-14.97-.16-24.97-.08-40,0-9.97,.05-14.98,9.19-15,20.19-.02,8.93,6.72,20.16,15,20.19,15.03,.05,20.03,.14,35,0,10-.09,20,10,20,20.19,0,10-5,20.09-15,20.18-29.97,.28-44.97-.27-70,0Z"/><g><path class="d" d="M164.87,51.88c2.66,.05,4.91,.94,6.76,2.67s2.78,3.9,2.78,6.51c0,1.66-.47,3.22-1.42,4.69s-2.18,2.63-3.7,3.51-3.12,1.37-4.79,1.48h-35.88c-.2,0-.4-.09-.53-.25l-4.96-5.9c-.38-.45-.06-1.14,.53-1.14h40.75c.62,0,1.14-.21,1.58-.62s.65-.92,.65-1.52c0-.57-.21-1.05-.63-1.45s-.92-.61-1.51-.64h-33.43c-2.58-.17-4.73-1.11-6.45-2.8s-2.53-3.66-2.58-6.07c-.06-2.65,.98-5.26,2.84-7.14,1.74-1.76,3.84-2.71,6.3-2.85h33.89c.21,0,.4,.09,.53,.25l4.97,5.95c.38,.45,.06,1.13-.53,1.13h-38.03c-.59,.03-1.09,.25-1.51,.64s-.63,.89-.63,1.49,.22,1.09,.65,1.47,.96,.57,1.58,.57h32.79Z"/><path class="d" d="M231.86,56.71c.41,0,.74,.36,.7,.77-.23,1.92-.79,3.76-1.75,5.5-1.27,2.29-3.01,4.14-5.22,5.56-2.21,1.4-4.62,2.15-7.21,2.2h-26.94c-2.59-.05-4.99-.8-7.21-2.2-2.21-1.42-3.95-3.27-5.22-5.56-.95-1.74-1.52-3.58-1.75-5.5-.05-.41,.28-.77,.7-.77h7.1c.33,0,.6,.24,.67,.56,.3,1.38,.96,2.6,2.05,3.65,1.5,1.44,3.32,2.17,5.44,2.17h23.42c2.12,0,3.93-.73,5.43-2.17,1.08-1.05,1.75-2.27,2.05-3.65,.07-.32,.34-.56,.67-.56h7.1Z"/><path class="d" d="M231.54,52.67h-7.38c-.27,0-.5-.16-.62-.4-.34-.68-.79-1.32-1.37-1.91-1.43-1.43-3.17-2.2-5.22-2.29h-24.08c-2.05,.09-3.79,.86-5.22,2.29-.58,.59-1.03,1.23-1.37,1.91-.12,.24-.35,.4-.62,.4h-7.37c-.44,0-.79-.42-.68-.85,.3-1.21,.73-2.37,1.34-3.5,1.21-2.25,2.89-4.1,4.99-5.52,2.12-1.4,4.43-2.2,6.94-2.38,.19-.04,4.87-.05,14.04-.05s13.85,.01,14.04,.05c2.51,.18,4.83,.97,6.94,2.38,2.11,1.42,3.78,3.27,4.99,5.52,.6,1.13,1.05,2.29,1.34,3.5,.11,.43-.24,.85-.68,.85Z"/><rect class="d" x="236.57" y="40.42" width="8.02" height="12.24" rx=".69" ry=".69"/><path class="d" d="M283.91,70.74h-46.65c-.38,0-.69-.31-.69-.69v-12.64c0-.38,.31-.69,.69-.69h6.63c.38,0,.69,.31,.69,.69v5.37c0,.38,.31,.69,.69,.69h33.68c.2,0,.4,.09,.53,.25l4.95,5.89c.38,.45,.06,1.14-.53,1.14Z"/><rect class="d" x="286.86" y="40.42" width="7.98" height="12.24" rx=".69" ry=".69"/><rect class="d" x="286.86" y="56.71" width="7.98" height="14.02" rx=".69" ry=".69"/><path class="d" d="M352.02,55.53c0,2.65-.63,5.13-1.9,7.44s-3.01,4.16-5.22,5.57c-2.2,1.4-4.6,2.15-7.19,2.2h-37.32c-.38,0-.69-.31-.69-.69v-12.64c0-.38,.31-.69,.69-.69h6.54c.38,0,.69,.31,.69,.69v5.31c0,.38,.31,.69,.69,.69h28.02c2.12,0,3.93-.77,5.45-2.32,1.51-1.55,2.28-3.4,2.28-5.56s-.72-3.86-2.13-5.39c-1.43-1.53-3.16-2.35-5.2-2.44-.07-.01-2.12-.01-6.17-.01s-8.76,0-14.11,.01h-8.15c-.38,0-.69,.31-.69,.69v3.58c0,.38-.31,.69-.69,.69h-6.54c-.38,0-.69-.31-.69-.69v-10.86c0-.38,.31-.69,.69-.69h37.89c1.88,0,3.68,.42,5.4,1.27,1.71,.85,3.17,1.96,4.39,3.36,1.21,1.39,2.17,3,2.89,4.83,.73,1.84,1.08,3.73,1.08,5.64Z"/></g></g></g></g></svg>